STARTFONT 2.1
FONT --San Francisco-Regular-R-Normal--20-180-80-80-P-97-APPLE-ROMAN
SIZE 18 80 80
FONTBOUNDINGBOX 21 20 0 -4
METRICSSET 2
STARTPROPERTIES 19
FONT_ASCENT 16
FONT_DESCENT 4
PIXEL_SIZE 20
RESOLUTION_X 80
RESOLUTION_Y 80
POINT_SIZE 180
FACE_NAME "San Francisco Regular 18"
FOUNDRY ""
FAMILY_NAME "San Francisco"
WEIGHT_NAME "Regular"
RELATIVE_WEIGHT 50
SLANT "R"
SPACING "P"
SETWIDTH_NAME "Normal"
RELATIVE_SETWIDTH 50
ADD_STYLE_NAME ""
AVERAGE_WIDTH 97
CHARSET_REGISTRY "APPLE"
CHARSET_ENCODING "ROMAN"
ENDPROPERTIES
CHARS 113
STARTCHAR char00
ENCODING 0
SWIDTH 0 0
DWIDTH 0 0
BBX 0 0 0 -4
VVECTOR 0 -4
SWIDTH1 0 0
DWIDTH1 0 0
BITMAP 
ENDCHAR
STARTCHAR char02
ENCODING 2
SWIDTH 0 0
DWIDTH 0 0
BBX 0 0 0 -4
VVECTOR 0 -4
SWIDTH1 0 0
DWIDTH1 0 0
BITMAP 
ENDCHAR
STARTCHAR char04
ENCODING 4
SWIDTH 0 0
DWIDTH 0 0
BBX 0 0 0 -4
VVECTOR 0 -4
SWIDTH1 0 0
DWIDTH1 0 0
BITMAP 
ENDCHAR
STARTCHAR char08
ENCODING 8
SWIDTH 0 0
DWIDTH 0 0
BBX 0 0 0 -4
VVECTOR 0 -4
SWIDTH1 0 0
DWIDTH1 0 0
BITMAP 
ENDCHAR
STARTCHAR char09
ENCODING 9
SWIDTH 300 0
DWIDTH 6 0
BBX 0 0 6 -4
VVECTOR 6 -4
SWIDTH1 0 0
DWIDTH1 0 0
BITMAP 
ENDCHAR
STARTCHAR char0A
ENCODING 10
SWIDTH 0 0
DWIDTH 0 0
BBX 0 0 0 -4
VVECTOR 0 -4
SWIDTH1 0 0
DWIDTH1 0 0
BITMAP 
ENDCHAR
STARTCHAR char0B
ENCODING 11
SWIDTH 0 0
DWIDTH 0 0
BBX 0 0 0 -4
VVECTOR 0 -4
SWIDTH1 0 0
DWIDTH1 0 0
BITMAP 
ENDCHAR
STARTCHAR char0C
ENCODING 12
SWIDTH 0 0
DWIDTH 0 0
BBX 0 0 0 -4
VVECTOR 0 -4
SWIDTH1 0 0
DWIDTH1 0 0
BITMAP 
ENDCHAR
STARTCHAR char0D
ENCODING 13
SWIDTH 0 0
DWIDTH 0 0
BBX 0 0 0 -4
VVECTOR 0 -4
SWIDTH1 0 0
DWIDTH1 0 0
BITMAP 
ENDCHAR
STARTCHAR char1F
ENCODING 31
SWIDTH 0 0
DWIDTH 0 0
BBX 0 0 0 -4
VVECTOR 0 -4
SWIDTH1 0 0
DWIDTH1 0 0
BITMAP 
ENDCHAR
STARTCHAR space
ENCODING 32
SWIDTH 250 0
DWIDTH 5 0
BBX 0 0 5 -4
VVECTOR 5 -4
SWIDTH1 0 0
DWIDTH1 0 0
BITMAP 
ENDCHAR
STARTCHAR exclam
ENCODING 33
SWIDTH 250 0
DWIDTH 5 0
BBX 2 15 2 -1
VVECTOR 3 16
SWIDTH1 0 -1000
DWIDTH1 0 -20
BITMAP 
C0
C0
C0
C0
C0
C0
C0
C0
C0
C0
C0
C0
00
C0
C0
ENDCHAR
STARTCHAR quotedbl
ENCODING 34
SWIDTH 350 0
DWIDTH 7 0
BBX 3 3 2 12
VVECTOR 4 16
SWIDTH1 0 -1000
DWIDTH1 0 -20
BITMAP 
A0
A0
A0
ENDCHAR
STARTCHAR numbersign
ENCODING 35
SWIDTH 600 0
DWIDTH 12 0
BBX 10 8 1 4
VVECTOR 6 16
SWIDTH1 0 -1000
DWIDTH1 0 -20
BITMAP 
0900
0900
7FC0
1200
1200
FF80
2400
2400
ENDCHAR
STARTCHAR dollar
ENCODING 36
SWIDTH 500 0
DWIDTH 10 0
BBX 8 16 1 0
VVECTOR 5 16
SWIDTH1 0 -1000
DWIDTH1 0 -20
BITMAP 
18
7E
FF
DB
DB
D8
FE
7F
1B
1B
DB
DB
FF
7E
18
18
ENDCHAR
STARTCHAR percent
ENCODING 37
SWIDTH 550 0
DWIDTH 11 0
BBX 9 10 1 1
VVECTOR 6 16
SWIDTH1 0 -1000
DWIDTH1 0 -20
BITMAP 
6F80
9100
9200
6400
0800
1000
2600
4900
8900
8600
ENDCHAR
STARTCHAR ampersand
ENCODING 38
SWIDTH 650 0
DWIDTH 13 0
BBX 10 13 2 -1
VVECTOR 7 16
SWIDTH1 0 -1000
DWIDTH1 0 -20
BITMAP 
3C00
6200
C200
C400
6040
3380
6700
CF80
C980
C180
C100
6200
3C00
ENDCHAR
STARTCHAR quotesingle
ENCODING 39
SWIDTH 250 0
DWIDTH 5 0
BBX 1 4 2 11
VVECTOR 3 16
SWIDTH1 0 -1000
DWIDTH1 0 -20
BITMAP 
80
80
80
80
ENDCHAR
STARTCHAR parenleft
ENCODING 40
SWIDTH 300 0
DWIDTH 6 0
BBX 3 17 1 -1
VVECTOR 3 16
SWIDTH1 0 -1000
DWIDTH1 0 -20
BITMAP 
20
40
C0
C0
C0
C0
C0
C0
C0
C0
C0
C0
C0
C0
C0
40
20
ENDCHAR
STARTCHAR parenright
ENCODING 41
SWIDTH 300 0
DWIDTH 6 0
BBX 3 17 2 -1
VVECTOR 4 16
SWIDTH1 0 -1000
DWIDTH1 0 -20
BITMAP 
80
40
40
20
20
20
20
20
20
20
20
20
20
20
40
40
80
ENDCHAR
STARTCHAR asterisk
ENCODING 42
SWIDTH 450 0
DWIDTH 9 0
BBX 7 7 1 8
VVECTOR 5 16
SWIDTH1 0 -1000
DWIDTH1 0 -20
BITMAP 
10
54
38
FE
38
54
10
ENDCHAR
STARTCHAR plus
ENCODING 43
SWIDTH 500 0
DWIDTH 10 0
BBX 8 8 1 2
VVECTOR 5 16
SWIDTH1 0 -1000
DWIDTH1 0 -20
BITMAP 
18
18
18
FF
FF
18
18
18
ENDCHAR
STARTCHAR comma
ENCODING 44
SWIDTH 200 0
DWIDTH 4 0
BBX 2 5 1 -3
VVECTOR 2 16
SWIDTH1 0 -1000
DWIDTH1 0 -20
BITMAP 
C0
C0
40
40
80
ENDCHAR
STARTCHAR hyphen
ENCODING 45
SWIDTH 450 0
DWIDTH 9 0
BBX 7 2 1 6
VVECTOR 5 16
SWIDTH1 0 -1000
DWIDTH1 0 -20
BITMAP 
FE
FE
ENDCHAR
STARTCHAR period
ENCODING 46
SWIDTH 300 0
DWIDTH 6 0
BBX 2 2 2 0
VVECTOR 3 16
SWIDTH1 0 -1000
DWIDTH1 0 -20
BITMAP 
C0
C0
ENDCHAR
STARTCHAR slash
ENCODING 47
SWIDTH 500 0
DWIDTH 10 0
BBX 8 16 1 -1
VVECTOR 5 16
SWIDTH1 0 -1000
DWIDTH1 0 -20
BITMAP 
01
01
02
02
04
04
08
08
10
10
20
20
40
40
80
80
ENDCHAR
STARTCHAR zero
ENCODING 48
SWIDTH 700 0
DWIDTH 14 0
BBX 12 13 1 1
VVECTOR 7 16
SWIDTH1 0 -1000
DWIDTH1 0 -20
BITMAP 
3FC0
79E0
F9F0
F9F0
F9F0
F9F0
F9F0
F9F0
F9F0
F9F0
F9F0
79E0
3FC0
ENDCHAR
STARTCHAR one
ENCODING 49
SWIDTH 400 0
DWIDTH 8 0
BBX 4 16 2 0
VVECTOR 4 16
SWIDTH1 0 -1000
DWIDTH1 0 -20
BITMAP 
60
E0
E0
60
60
60
60
60
60
60
60
60
60
60
F0
F0
ENDCHAR
STARTCHAR two
ENCODING 50
SWIDTH 550 0
DWIDTH 11 0
BBX 7 12 2 2
VVECTOR 6 16
SWIDTH1 0 -1000
DWIDTH1 0 -20
BITMAP 
7C
FE
C6
C6
06
7E
FC
C0
C6
C6
FE
FE
ENDCHAR
STARTCHAR three
ENCODING 51
SWIDTH 350 0
DWIDTH 7 0
BBX 5 18 1 -3
VVECTOR 4 16
SWIDTH1 0 -1000
DWIDTH1 0 -20
BITMAP 
70
D8
D8
D8
D8
D8
18
18
70
18
18
D8
D8
D8
D8
D8
D8
70
ENDCHAR
STARTCHAR four
ENCODING 52
SWIDTH 650 0
DWIDTH 13 0
BBX 11 12 1 1
VVECTOR 7 16
SWIDTH1 0 -1000
DWIDTH1 0 -20
BITMAP 
01C0
03C0
05C0
09C0
11C0
21C0
41C0
FFE0
01C0
01C0
01C0
01C0
ENDCHAR
STARTCHAR five
ENCODING 53
SWIDTH 750 0
DWIDTH 15 0
BBX 11 13 2 -1
VVECTOR 8 16
SWIDTH1 0 -1000
DWIDTH1 0 -20
BITMAP 
FFE0
E0E0
E0E0
E000
FF80
00C0
00E0
00E0
E0E0
E0E0
E0E0
60C0
3F80
ENDCHAR
STARTCHAR six
ENCODING 54
SWIDTH 500 0
DWIDTH 10 0
BBX 8 15 1 0
VVECTOR 5 16
SWIDTH1 0 -1000
DWIDTH1 0 -20
BITMAP 
7E
FF
C3
C0
C0
FE
FF
C3
C3
C3
C3
C3
C3
FF
7E
ENDCHAR
STARTCHAR seven
ENCODING 55
SWIDTH 500 0
DWIDTH 10 0
BBX 8 13 1 0
VVECTOR 5 16
SWIDTH1 0 -1000
DWIDTH1 0 -20
BITMAP 
FF
C3
C3
06
06
0C
0C
18
18
18
18
18
18
ENDCHAR
STARTCHAR eight
ENCODING 56
SWIDTH 600 0
DWIDTH 12 0
BBX 8 15 2 0
VVECTOR 6 16
SWIDTH1 0 -1000
DWIDTH1 0 -20
BITMAP 
3C
42
81
81
81
42
3C
42
81
81
81
81
81
42
3C
ENDCHAR
STARTCHAR nine
ENCODING 57
SWIDTH 500 0
DWIDTH 10 0
BBX 8 14 1 -2
VVECTOR 5 16
SWIDTH1 0 -1000
DWIDTH1 0 -20
BITMAP 
7E
E7
E7
E7
E7
E7
E7
7F
07
07
E7
E7
E7
7E
ENDCHAR
STARTCHAR colon
ENCODING 58
SWIDTH 300 0
DWIDTH 6 0
BBX 2 10 2 -1
VVECTOR 3 16
SWIDTH1 0 -1000
DWIDTH1 0 -20
BITMAP 
C0
C0
00
00
00
00
00
00
C0
C0
ENDCHAR
STARTCHAR semicolon
ENCODING 59
SWIDTH 300 0
DWIDTH 6 0
BBX 2 12 2 -2
VVECTOR 3 16
SWIDTH1 0 -1000
DWIDTH1 0 -20
BITMAP 
C0
C0
00
00
00
00
00
C0
C0
40
40
80
ENDCHAR
STARTCHAR less
ENCODING 60
SWIDTH 500 0
DWIDTH 10 0
BBX 6 9 2 1
VVECTOR 5 16
SWIDTH1 0 -1000
DWIDTH1 0 -20
BITMAP 
0C
18
30
60
C0
60
30
18
0C
ENDCHAR
STARTCHAR equal
ENCODING 61
SWIDTH 450 0
DWIDTH 9 0
BBX 7 6 1 2
VVECTOR 5 16
SWIDTH1 0 -1000
DWIDTH1 0 -20
BITMAP 
FE
FE
00
00
FE
FE
ENDCHAR
STARTCHAR greater
ENCODING 62
SWIDTH 450 0
DWIDTH 9 0
BBX 6 11 2 -1
VVECTOR 5 16
SWIDTH1 0 -1000
DWIDTH1 0 -20
BITMAP 
80
40
20
10
08
04
08
10
20
40
80
ENDCHAR
STARTCHAR question
ENCODING 63
SWIDTH 650 0
DWIDTH 13 0
BBX 9 17 2 -2
VVECTOR 7 16
SWIDTH1 0 -1000
DWIDTH1 0 -20
BITMAP 
3E00
7F00
E380
C180
C180
0380
0700
0E00
1C00
1800
1800
1800
0000
0000
1800
1800
1800
ENDCHAR
STARTCHAR at
ENCODING 64
SWIDTH 650 0
DWIDTH 13 0
BBX 11 12 1 -2
VVECTOR 7 16
SWIDTH1 0 -1000
DWIDTH1 0 -20
BITMAP 
1F00
2080
4040
8E20
9120
9120
9120
9120
8EC0
4000
2000
1C00
ENDCHAR
STARTCHAR A
ENCODING 65
SWIDTH 500 0
DWIDTH 10 0
BBX 8 13 1 2
VVECTOR 5 16
SWIDTH1 0 -1000
DWIDTH1 0 -20
BITMAP 
7E
FF
C3
C3
C3
C3
FF
FF
C3
C3
C3
C3
C3
ENDCHAR
STARTCHAR B
ENCODING 66
SWIDTH 750 0
DWIDTH 15 0
BBX 12 15 1 1
VVECTOR 7 16
SWIDTH1 0 -1000
DWIDTH1 0 -20
BITMAP 
FFC0
3CE0
3CF0
3CF0
3CF0
3CE0
3FC0
3CE0
3CF0
3CF0
3CF0
3CF0
3CF0
3CE0
FFC0
ENDCHAR
STARTCHAR C
ENCODING 67
SWIDTH 400 0
DWIDTH 8 0
BBX 6 20 1 -4
VVECTOR 4 16
SWIDTH1 0 -1000
DWIDTH1 0 -20
BITMAP 
78
CC
CC
CC
CC
C0
C0
C0
C0
C0
C0
C0
C0
C0
C0
CC
CC
CC
CC
78
ENDCHAR
STARTCHAR D
ENCODING 68
SWIDTH 550 0
DWIDTH 11 0
BBX 9 12 1 3
VVECTOR 6 16
SWIDTH1 0 -1000
DWIDTH1 0 -20
BITMAP 
FE00
F100
F080
F080
F080
F080
F080
F080
F080
F080
F100
FE00
ENDCHAR
STARTCHAR E
ENCODING 69
SWIDTH 550 0
DWIDTH 11 0
BBX 9 15 1 1
VVECTOR 6 16
SWIDTH1 0 -1000
DWIDTH1 0 -20
BITMAP 
FF80
FF80
6180
6180
6000
6000
7E00
7E00
6000
6000
6000
6180
6180
FF80
FF80
ENDCHAR
STARTCHAR F
ENCODING 70
SWIDTH 500 0
DWIDTH 10 0
BBX 8 14 1 0
VVECTOR 5 16
SWIDTH1 0 -1000
DWIDTH1 0 -20
BITMAP 
FF
81
81
9F
90
9E
82
82
9E
90
90
90
90
F0
ENDCHAR
STARTCHAR G
ENCODING 71
SWIDTH 700 0
DWIDTH 14 0
BBX 10 12 2 3
VVECTOR 7 16
SWIDTH1 0 -1000
DWIDTH1 0 -20
BITMAP 
3F00
6180
E1C0
E1C0
E000
E000
E7C0
E1C0
E1C0
E1C0
6180
3F00
ENDCHAR
STARTCHAR H
ENCODING 72
SWIDTH 550 0
DWIDTH 11 0
BBX 9 13 1 1
VVECTOR 6 16
SWIDTH1 0 -1000
DWIDTH1 0 -20
BITMAP 
E380
E380
E380
E380
E380
E380
FF80
E380
E380
E380
E380
E380
E380
ENDCHAR
STARTCHAR I
ENCODING 73
SWIDTH 400 0
DWIDTH 8 0
BBX 6 14 1 2
VVECTOR 4 16
SWIDTH1 0 -1000
DWIDTH1 0 -20
BITMAP 
FC
FC
FC
78
78
78
78
78
78
78
78
FC
FC
FC
ENDCHAR
STARTCHAR J
ENCODING 74
SWIDTH 550 0
DWIDTH 11 0
BBX 9 17 1 -2
VVECTOR 6 16
SWIDTH1 0 -1000
DWIDTH1 0 -20
BITMAP 
0F80
0500
0500
0500
0500
0500
0500
0500
0500
0500
0500
E500
A500
A500
A500
A500
7E00
ENDCHAR
STARTCHAR K
ENCODING 75
SWIDTH 600 0
DWIDTH 12 0
BBX 10 13 1 1
VVECTOR 6 16
SWIDTH1 0 -1000
DWIDTH1 0 -20
BITMAP 
E3C0
4100
4200
4400
4800
5000
6000
5000
4800
4400
4200
4100
E3C0
ENDCHAR
STARTCHAR L
ENCODING 76
SWIDTH 500 0
DWIDTH 10 0
BBX 8 15 1 0
VVECTOR 5 16
SWIDTH1 0 -1000
DWIDTH1 0 -20
BITMAP 
F0
60
60
60
60
60
60
60
60
60
60
63
63
63
FF
ENDCHAR
STARTCHAR M
ENCODING 77
SWIDTH 850 0
DWIDTH 17 0
BBX 15 11 1 2
VVECTOR 9 16
SWIDTH1 0 -1000
DWIDTH1 0 -20
BITMAP 
E00E
F01E
F83E
FC7E
FEFE
EFEE
E7CE
E38E
E10E
E00E
E00E
ENDCHAR
STARTCHAR N
ENCODING 78
SWIDTH 700 0
DWIDTH 14 0
BBX 12 12 1 2
VVECTOR 7 16
SWIDTH1 0 -1000
DWIDTH1 0 -20
BITMAP 
C070
6020
7020
7820
5C20
4E20
4720
43A0
41E0
40E0
4060
E020
ENDCHAR
STARTCHAR O
ENCODING 79
SWIDTH 400 0
DWIDTH 8 0
BBX 6 15 1 0
VVECTOR 4 16
SWIDTH1 0 -1000
DWIDTH1 0 -20
BITMAP 
78
CC
CC
CC
CC
CC
CC
CC
CC
CC
CC
CC
CC
CC
78
ENDCHAR
STARTCHAR P
ENCODING 80
SWIDTH 600 0
DWIDTH 12 0
BBX 10 13 1 2
VVECTOR 6 16
SWIDTH1 0 -1000
DWIDTH1 0 -20
BITMAP 
FF00
7080
7040
7040
7040
7040
7080
7F00
7000
7000
7000
7000
F800
ENDCHAR
STARTCHAR Q
ENCODING 81
SWIDTH 850 0
DWIDTH 17 0
BBX 15 13 1 0
VVECTOR 9 16
SWIDTH1 0 -1000
DWIDTH1 0 -20
BITMAP 
3FF8
5014
A00A
A00A
A00A
A00A
A00A
A18A
5254
3FF8
0040
0048
0030
ENDCHAR
STARTCHAR R
ENCODING 82
SWIDTH 950 0
DWIDTH 19 0
BBX 17 13 1 -1
VVECTOR 10 16
SWIDTH1 0 -1000
DWIDTH1 0 -20
BITMAP 
FFF000
3C3800
3C3C00
3C3C00
3C3C00
3C3C00
3C3800
3FE000
3C3800
3C3C00
3C3C80
3C3C80
FF1F00
ENDCHAR
STARTCHAR S
ENCODING 83
SWIDTH 650 0
DWIDTH 13 0
BBX 11 13 1 0
VVECTOR 7 16
SWIDTH1 0 -1000
DWIDTH1 0 -20
BITMAP 
7FC0
A0A0
A0A0
A0A0
A0E0
A000
7FC0
00A0
E0A0
A0A0
A0A0
A0A0
7FC0
ENDCHAR
STARTCHAR T
ENCODING 84
SWIDTH 600 0
DWIDTH 12 0
BBX 10 11 1 1
VVECTOR 6 16
SWIDTH1 0 -1000
DWIDTH1 0 -20
BITMAP 
FFC0
9F40
1F00
1F00
1F00
1F00
1F00
1F00
1F00
1F00
3F80
ENDCHAR
STARTCHAR U
ENCODING 85
SWIDTH 700 0
DWIDTH 14 0
BBX 12 17 1 -3
VVECTOR 7 16
SWIDTH1 0 -1000
DWIDTH1 0 -20
BITMAP 
F9F0
70E0
70E0
70E0
70E0
70E0
70E0
70E0
70E0
70E0
70E0
70E0
70E0
70E0
70E0
30C0
1F80
ENDCHAR
STARTCHAR V
ENCODING 86
SWIDTH 1050 0
DWIDTH 21 0
BBX 19 9 1 2
VVECTOR 11 16
SWIDTH1 0 -1000
DWIDTH1 0 -20
BITMAP 
FF07E0
3C0180
1E0300
0F0600
078C00
03D800
01F000
00E000
004000
ENDCHAR
STARTCHAR W
ENCODING 87
SWIDTH 1100 0
DWIDTH 22 0
BBX 20 16 1 -1
VVECTOR 11 16
SWIDTH1 0 -1000
DWIDTH1 0 -20
BITMAP 
104080
38E1C0
7DF3E0
BEFDF0
3C78F0
3C78F0
3C78F0
3C78F0
3C78F0
3C78F0
3C78E0
3E7CC0
1F7E80
0F9F00
070E00
020400
ENDCHAR
STARTCHAR X
ENCODING 88
SWIDTH 750 0
DWIDTH 15 0
BBX 13 11 1 2
VVECTOR 8 16
SWIDTH1 0 -1000
DWIDTH1 0 -20
BITMAP 
E038
7070
38E0
1DC0
0F80
0700
0F80
1DC0
38E0
7070
E038
ENDCHAR
STARTCHAR Y
ENCODING 89
SWIDTH 700 0
DWIDTH 14 0
BBX 13 14 1 0
VVECTOR 8 16
SWIDTH1 0 -1000
DWIDTH1 0 -20
BITMAP 
E038
7070
38E0
1DC0
0F80
0700
0700
0700
0700
0700
0700
0700
0700
0700
ENDCHAR
STARTCHAR Z
ENCODING 90
SWIDTH 700 0
DWIDTH 14 0
BBX 12 10 1 3
VVECTOR 7 16
SWIDTH1 0 -1000
DWIDTH1 0 -20
BITMAP 
1FF0
38E0
71C0
0380
0700
0E00
1C00
38E0
71C0
FF80
ENDCHAR
STARTCHAR bracketleft
ENCODING 91
SWIDTH 300 0
DWIDTH 6 0
BBX 4 20 1 -4
VVECTOR 3 16
SWIDTH1 0 -1000
DWIDTH1 0 -20
BITMAP 
F0
80
80
80
80
80
80
80
80
80
80
80
80
80
80
80
80
80
80
F0
ENDCHAR
STARTCHAR backslash
ENCODING 92
SWIDTH 550 0
DWIDTH 11 0
BBX 9 17 1 -1
VVECTOR 6 16
SWIDTH1 0 -1000
DWIDTH1 0 -20
BITMAP 
8000
4000
4000
2000
2000
1000
1000
0800
0800
0400
0400
0200
0200
0100
0100
0080
0080
ENDCHAR
STARTCHAR bracketright
ENCODING 93
SWIDTH 400 0
DWIDTH 8 0
BBX 5 18 2 -2
VVECTOR 5 16
SWIDTH1 0 -1000
DWIDTH1 0 -20
BITMAP 
F8
18
18
18
18
18
18
18
18
18
18
18
18
18
18
18
18
F8
ENDCHAR
STARTCHAR underscore
ENCODING 95
SWIDTH 550 0
DWIDTH 11 0
BBX 11 1 0 0
VVECTOR 6 16
SWIDTH1 0 -1000
DWIDTH1 0 -20
BITMAP 
FFE0
ENDCHAR
STARTCHAR char60
ENCODING 96
SWIDTH 0 0
DWIDTH 0 0
BBX 0 0 0 -4
VVECTOR 0 -4
SWIDTH1 0 0
DWIDTH1 0 0
BITMAP 
ENDCHAR
STARTCHAR a
ENCODING 97
SWIDTH 500 0
DWIDTH 10 0
BBX 8 12 1 0
VVECTOR 5 16
SWIDTH1 0 -1000
DWIDTH1 0 -20
BITMAP 
78
C4
C6
06
3E
46
C6
C6
C6
C6
46
3F
ENDCHAR
STARTCHAR b
ENCODING 98
SWIDTH 550 0
DWIDTH 11 0
BBX 9 14 1 2
VVECTOR 6 16
SWIDTH1 0 -1000
DWIDTH1 0 -20
BITMAP 
F000
7000
7000
7E00
7100
7080
7080
7080
7080
7080
7080
7080
7100
FE00
ENDCHAR
STARTCHAR c
ENCODING 99
SWIDTH 600 0
DWIDTH 12 0
BBX 10 11 1 0
VVECTOR 6 16
SWIDTH1 0 -1000
DWIDTH1 0 -20
BITMAP 
7F80
F3C0
F3C0
F3C0
F3C0
F000
F3C0
F3C0
F3C0
F3C0
7F80
ENDCHAR
STARTCHAR d
ENCODING 100
SWIDTH 550 0
DWIDTH 11 0
BBX 8 15 2 1
VVECTOR 6 16
SWIDTH1 0 -1000
DWIDTH1 0 -20
BITMAP 
0E
06
06
06
06
7E
C6
C6
C6
C6
C6
C6
C6
C6
7F
ENDCHAR
STARTCHAR e
ENCODING 101
SWIDTH 700 0
DWIDTH 14 0
BBX 11 10 1 -1
VVECTOR 7 16
SWIDTH1 0 -1000
DWIDTH1 0 -20
BITMAP 
3F80
60C0
E0E0
E0E0
FFE0
E000
E0E0
E0E0
60C0
3F80
ENDCHAR
STARTCHAR f
ENCODING 102
SWIDTH 350 0
DWIDTH 7 0
BBX 5 16 1 0
VVECTOR 4 16
SWIDTH1 0 -1000
DWIDTH1 0 -20
BITMAP 
38
78
60
60
60
F8
F8
60
60
60
60
60
60
60
F0
F0
ENDCHAR
STARTCHAR g
ENCODING 103
SWIDTH 550 0
DWIDTH 11 0
BBX 9 14 1 -4
VVECTOR 6 16
SWIDTH1 0 -1000
DWIDTH1 0 -20
BITMAP 
7F80
E380
E380
E380
E380
E380
E380
E380
E380
7F80
0380
E380
E380
7F00
ENDCHAR
STARTCHAR h
ENCODING 104
SWIDTH 650 0
DWIDTH 13 0
BBX 11 14 1 0
VVECTOR 7 16
SWIDTH1 0 -1000
DWIDTH1 0 -20
BITMAP 
E000
6000
6000
6000
6000
6F00
7180
60C0
60C0
60C0
60C0
60C0
60C0
F1E0
ENDCHAR
STARTCHAR i
ENCODING 105
SWIDTH 350 0
DWIDTH 7 0
BBX 5 13 1 2
VVECTOR 4 16
SWIDTH1 0 -1000
DWIDTH1 0 -20
BITMAP 
70
70
70
00
F0
70
70
70
70
70
70
70
F8
ENDCHAR
STARTCHAR j
ENCODING 106
SWIDTH 350 0
DWIDTH 7 0
BBX 5 15 1 -4
VVECTOR 4 16
SWIDTH1 0 -1000
DWIDTH1 0 -20
BITMAP 
18
18
00
18
18
18
18
18
18
18
D8
D8
D8
D8
70
ENDCHAR
STARTCHAR k
ENCODING 107
SWIDTH 500 0
DWIDTH 10 0
BBX 7 14 1 0
VVECTOR 5 16
SWIDTH1 0 -1000
DWIDTH1 0 -20
BITMAP 
C0
C0
C0
C0
C0
C0
CC
D8
F0
E0
F0
D8
CC
C6
ENDCHAR
STARTCHAR l
ENCODING 108
SWIDTH 350 0
DWIDTH 7 0
BBX 5 18 1 -2
VVECTOR 4 16
SWIDTH1 0 -1000
DWIDTH1 0 -20
BITMAP 
F0
50
50
50
50
50
50
50
50
50
50
50
50
50
50
50
50
F8
ENDCHAR
STARTCHAR m
ENCODING 109
SWIDTH 900 0
DWIDTH 18 0
BBX 16 9 1 1
VVECTOR 9 16
SWIDTH1 0 -1000
DWIDTH1 0 -20
BITMAP 
339C
75AC
B9CC
318C
318C
318C
35AD
39CE
318C
ENDCHAR
STARTCHAR n
ENCODING 110
SWIDTH 650 0
DWIDTH 13 0
BBX 11 9 1 -1
VVECTOR 7 16
SWIDTH1 0 -1000
DWIDTH1 0 -20
BITMAP 
FF80
71C0
71C0
71C0
71C0
71C0
71C0
71C0
FBE0
ENDCHAR
STARTCHAR o
ENCODING 111
SWIDTH 450 0
DWIDTH 9 0
BBX 7 11 1 0
VVECTOR 5 16
SWIDTH1 0 -1000
DWIDTH1 0 -20
BITMAP 
38
44
C6
C6
C6
C6
C6
C6
C6
44
38
ENDCHAR
STARTCHAR p
ENCODING 112
SWIDTH 450 0
DWIDTH 9 0
BBX 7 14 1 -3
VVECTOR 5 16
SWIDTH1 0 -1000
DWIDTH1 0 -20
BITMAP 
FC
FE
C6
C6
C6
C6
C6
C6
FE
FC
C0
C0
C0
C0
ENDCHAR
STARTCHAR q
ENCODING 113
SWIDTH 500 0
DWIDTH 10 0
BBX 7 16 2 -4
VVECTOR 6 16
SWIDTH1 0 -1000
DWIDTH1 0 -20
BITMAP 
7E
CC
CC
CC
CC
CC
CC
CC
CC
CC
7C
0C
0C
0C
0C
0E
ENDCHAR
STARTCHAR r
ENCODING 114
SWIDTH 600 0
DWIDTH 12 0
BBX 10 11 1 0
VVECTOR 6 16
SWIDTH1 0 -1000
DWIDTH1 0 -20
BITMAP 
FF80
7BC0
7BC0
7BC0
7BC0
7800
7800
7800
7800
7800
FC00
ENDCHAR
STARTCHAR s
ENCODING 115
SWIDTH 350 0
DWIDTH 7 0
BBX 5 15 1 1
VVECTOR 4 16
SWIDTH1 0 -1000
DWIDTH1 0 -20
BITMAP 
70
D8
D8
D8
C0
E0
70
38
18
D8
D8
D8
D8
D8
70
ENDCHAR
STARTCHAR t
ENCODING 116
SWIDTH 600 0
DWIDTH 12 0
BBX 7 17 2 -2
VVECTOR 6 16
SWIDTH1 0 -1000
DWIDTH1 0 -20
BITMAP 
30
30
30
30
FC
30
30
30
30
30
30
30
32
32
32
32
1C
ENDCHAR
STARTCHAR u
ENCODING 117
SWIDTH 500 0
DWIDTH 10 0
BBX 8 13 1 -3
VVECTOR 5 16
SWIDTH1 0 -1000
DWIDTH1 0 -20
BITMAP 
EE
66
66
66
66
66
66
66
66
66
66
66
3F
ENDCHAR
STARTCHAR v
ENCODING 118
SWIDTH 600 0
DWIDTH 12 0
BBX 10 8 1 0
VVECTOR 6 16
SWIDTH1 0 -1000
DWIDTH1 0 -20
BITMAP 
FBC0
6100
6200
6400
6800
7000
6000
4000
ENDCHAR
STARTCHAR w
ENCODING 119
SWIDTH 800 0
DWIDTH 16 0
BBX 14 8 1 3
VVECTOR 8 16
SWIDTH1 0 -1000
DWIDTH1 0 -20
BITMAP 
F7BC
739C
739C
739C
739C
739C
7398
7FF0
ENDCHAR
STARTCHAR x
ENCODING 120
SWIDTH 650 0
DWIDTH 13 0
BBX 11 9 1 0
VVECTOR 7 16
SWIDTH1 0 -1000
DWIDTH1 0 -20
BITMAP 
FBE0
2080
1100
0A00
0400
0A00
1100
2080
FBE0
ENDCHAR
STARTCHAR y
ENCODING 121
SWIDTH 600 0
DWIDTH 12 0
BBX 10 15 1 -4
VVECTOR 6 16
SWIDTH1 0 -1000
DWIDTH1 0 -20
BITMAP 
6180
B2C0
30C0
30C0
30C0
30C0
30C0
11C0
0EC0
00C0
04C0
38C0
6080
6100
3E00
ENDCHAR
STARTCHAR z
ENCODING 122
SWIDTH 700 0
DWIDTH 14 0
BBX 12 9 1 3
VVECTOR 7 16
SWIDTH1 0 -1000
DWIDTH1 0 -20
BITMAP 
FFF0
C1E0
C3C0
0780
0F00
1E00
3C30
7830
FFF0
ENDCHAR
STARTCHAR braceleft
ENCODING 123
SWIDTH 300 0
DWIDTH 6 0
BBX 4 20 1 -4
VVECTOR 3 16
SWIDTH1 0 -1000
DWIDTH1 0 -20
BITMAP 
30
40
40
40
40
40
40
40
40
80
40
40
40
40
40
40
40
40
40
30
ENDCHAR
STARTCHAR bar
ENCODING 124
SWIDTH 250 0
DWIDTH 5 0
BBX 1 19 2 -3
VVECTOR 3 16
SWIDTH1 0 -1000
DWIDTH1 0 -20
BITMAP 
80
80
80
80
80
80
80
80
80
80
80
80
80
80
80
80
80
80
80
ENDCHAR
STARTCHAR braceright
ENCODING 125
SWIDTH 350 0
DWIDTH 7 0
BBX 4 19 2 -3
VVECTOR 4 16
SWIDTH1 0 -1000
DWIDTH1 0 -20
BITMAP 
80
40
60
60
60
60
60
60
20
10
20
60
60
60
60
60
60
40
80
ENDCHAR
STARTCHAR char7F
ENCODING 127
SWIDTH 0 0
DWIDTH 0 0
BBX 0 0 0 -4
VVECTOR 0 -4
SWIDTH1 0 0
DWIDTH1 0 0
BITMAP 
ENDCHAR
STARTCHAR uni00A0
ENCODING 202
SWIDTH 650 0
DWIDTH 13 0
BBX 0 0 13 -4
VVECTOR 13 -4
SWIDTH1 0 0
DWIDTH1 0 0
BITMAP 
ENDCHAR
STARTCHAR endash
ENCODING 208
SWIDTH 450 0
DWIDTH 9 0
BBX 7 2 1 5
VVECTOR 5 16
SWIDTH1 0 -1000
DWIDTH1 0 -20
BITMAP 
FE
FE
ENDCHAR
STARTCHAR emdash
ENCODING 209
SWIDTH 650 0
DWIDTH 13 0
BBX 12 1 0 8
VVECTOR 6 16
SWIDTH1 0 -1000
DWIDTH1 0 -20
BITMAP 
FFF0
ENDCHAR
STARTCHAR quotedblleft
ENCODING 210
SWIDTH 400 0
DWIDTH 8 0
BBX 6 6 1 8
VVECTOR 4 16
SWIDTH1 0 -1000
DWIDTH1 0 -20
BITMAP 
44
88
88
C8
CC
0C
ENDCHAR
STARTCHAR quotedblright
ENCODING 211
SWIDTH 400 0
DWIDTH 8 0
BBX 6 7 1 7
VVECTOR 4 16
SWIDTH1 0 -1000
DWIDTH1 0 -20
BITMAP 
C0
CC
CC
4C
44
84
08
ENDCHAR
STARTCHAR quoteleft
ENCODING 212
SWIDTH 350 0
DWIDTH 7 0
BBX 3 6 2 9
VVECTOR 4 16
SWIDTH1 0 -1000
DWIDTH1 0 -20
BITMAP 
20
40
C0
E0
E0
40
ENDCHAR
STARTCHAR quoteright
ENCODING 213
SWIDTH 350 0
DWIDTH 7 0
BBX 2 5 3 9
VVECTOR 4 16
SWIDTH1 0 -1000
DWIDTH1 0 -20
BITMAP 
C0
C0
40
40
80
ENDCHAR
STARTCHAR Ydieresis
ENCODING 217
SWIDTH 1000 0
DWIDTH 20 0
BBX 18 8 1 0
VVECTOR 10 16
SWIDTH1 0 -1000
DWIDTH1 0 -20
BITMAP 
01F800
022400
042200
7FFF80
FFFFC0
FFFFC0
121200
0C0C00
ENDCHAR
STARTCHAR missing
ENCODING -1
SWIDTH 750 0
DWIDTH 15 0
BBX 13 15 1 0
VVECTOR 8 16
SWIDTH1 0 -1000
DWIDTH1 0 -20
BITMAP 
FFF8
8008
8008
8008
8008
8008
8008
8008
8008
8008
8008
8008
8008
8008
FFF8
ENDCHAR
ENDFONT
